<?xml version="1.0" encoding="utf-8"?>
<svg viewBox="22.478 10.728 390.166 411.111" xmlns="http://www.w3.org/2000/svg" xmlnsBx="https://boxy-svg.com">
  <defs>
    <filter id="drop-shadow-filter-0" x="-500%" y="-500%" width="1000%" height="1000%" bxPreset="drop-shadow 1 10 10 0 0.5 rgba(0,0,0,0.3)">
      <feGaussianBlur in="SourceAlpha" stdDeviation="0"/>
      <feOffset dx="10" dy="10"/>
      <feComponentTransfer result="offsetblur">
        <feFuncA id="spread-ctrl" type="linear" slope="1"/>
      </feComponentTransfer>
      <feFlood flood-color="rgba(0,0,0,0.3)"/>
      <feComposite in2="offsetblur" operator="in"/>
      <feMerge>
        <feMergeNode/>
        <feMergeNode in="SourceGraphic"/>
      </feMerge>
    </filter>
    <radialGradient gradientUnits="userSpaceOnUse" cx="173.645" cy="139.711" r="87.547" id="gradient-1" spreadMethod="reflect">
      <stop offset="0" style="stop-color: rgba(213, 218, 215, 1)"/>
      <stop offset="1" style="stop-color: rgba(159, 170, 163, 1)"/>
    </radialGradient>
    <radialGradient gradientUnits="userSpaceOnUse" cx="209.08" cy="190.518" r="102.304" id="gradient-0">
      <stop offset="0" style="stop-color: rgba(137, 198, 204, 1)"/>
      <stop offset="1" style="stop-color: rgba(72, 159, 167, 1)"/>
    </radialGradient>
  </defs>
  <path d="M 311.384 190.453 C 311.384 248.15 265.581 294.923 209.08 294.923 C 152.579 294.923 106.776 248.15 106.776 190.453 C 106.776 134.515 149.83 88.844 203.945 86.112 C 203.642 87.256 203.436 88.379 203.303 89.481 C 203.022 91.815 203.048 94.109 203.699 96.21 C 204.356 98.334 206.678 100.062 207.261 102.147 C 207.824 104.159 206.795 106.333 207.261 108.48 C 207.767 110.812 208.979 113.574 210.427 115.604 C 211.836 117.58 213.893 119.386 215.771 120.552 C 217.473 121.608 220.071 121.166 221.114 122.531 C 222.245 124.01 221.077 127.185 221.905 129.457 C 222.812 131.942 224.843 134.921 226.655 136.779 C 228.257 138.423 229.7 139.312 231.998 140.342 C 234.922 141.652 241.061 141.658 243.279 143.508 C 244.999 144.943 244.18 147.573 245.653 149.247 C 247.4 151.232 251.352 153.565 253.767 154.195 C 255.66 154.688 257.369 154.286 258.913 153.799 C 259.198 153.709 259.478 153.613 259.753 153.507 C 259.802 153.566 259.852 153.623 259.902 153.68 C 261.384 155.341 264.151 156.537 266.037 157.044 C 267.597 157.464 268.934 157.395 270.391 157.044 C 271.968 156.664 273.817 155.881 275.141 154.67 C 275.193 154.622 275.245 154.574 275.297 154.525 C 275.764 156.14 276.384 157.554 277.634 158.746 C 279.137 160.179 281.847 161.802 284.165 162.111 C 286.525 162.425 289.707 161.697 291.685 160.527 C 291.81 160.453 291.932 160.377 292.051 160.299 C 292.798 160.555 293.535 160.724 294.218 160.765 C 296.113 160.878 298.453 160.193 300.315 159.197 C 301.109 159.803 301.935 160.358 302.767 160.844 C 304.301 161.741 306.069 162.589 307.864 163.184 C 310.159 171.877 311.384 181.019 311.384 190.453" style="filter: none; paint-order: fill; fill: url(#gradient-0); fill-rule: evenodd; stroke: rgb(255, 255, 255);"/>
  <path style="filter: url(#drop-shadow-filter-0); fill-rule: evenodd; fill: url(#gradient-1); paint-order: stroke markers; stroke: rgb(184, 177, 177);" d="M 256.126 82.34 L 143.085 150.734 C 136.346 143.208 127.084 145.219 118.703 146.301 C 105.882 147.609 93.563 159.357 90.839 165.616 C 85.788 174.955 83.494 188.128 90.522 193.48 C 97.699 197.913 107.197 197.596 115.852 196.013 C 130.061 192.237 135.93 187.061 141.818 179.865 C 148.64 170.177 148.107 154.558 145.934 155.8 L 261.192 85.824 L 256.126 82.34 Z"/>
  <text style="fill: rgb(228, 245, 255); font-family: Arial, sans-serif; font-size: 11.1px; white-space: pre;" transform="matrix(3.49514, -0.003619, 0.004245, 4.100037, -429.190216, -749.436768)" x="154.8" y="235.91" dx="-0.338" dy="3.425" bxOrigin="0.448 0.559">CRUMBLE</text>
</svg>