<?xml version="1.0" encoding="UTF-8" standalone="no" ?>
<!DOCTYPE svg PUBLIC "-//W3C//DTD SVG 1.1//EN" "http://www.w3.org/Graphics/SVG/1.1/DTD/svg11.dtd">
<svg xmlns="http://www.w3.org/2000/svg" xmlns:xlink="http://www.w3.org/1999/xlink" version="1.1" width="500" height="500" viewBox="0 0 500 500" xml:space="preserve">
<desc>Created with Fabric.js 4.6.0</desc>
<defs>
</defs>
<g transform="matrix(3.23 0 0 4.1 245.19 227.75)" id="qS42QIA_CmOs8dRpUvk9X"  >
<path style="stroke: rgb(2,39,174); stroke-width: 0; stroke-dasharray: none; stroke-linecap: butt; stroke-dashoffset: 0; stroke-linejoin: miter; stroke-miterlimit: 4; fill: rgb(49,196,247); fill-rule: nonzero; opacity: 1;" vector-effect="non-scaling-stroke"  transform=" translate(0, 0)" d="M -48.30864 22.60046 C -52.67733 7.223380000000002 -48.7393 -8.893359999999998 -37.43745 -21.890829999999998 C -26.135599999999997 -34.8883 -8.487549999999999 -43.59622 11.28114 -45.92959 L 20.77574 -47.05028 L 20.77574 -47.05028 C 26.795409999999997 -47.76081 32.90905 -46.36848 37.520709999999994 -43.236760000000004 C 42.132369999999995 -40.10504 44.784349999999996 -35.54475000000001 44.784349999999996 -30.746340000000004 L 44.784349999999996 -24.891840000000002 L 44.784349999999996 -24.891840000000002 C 44.784349999999996 -24.093690000000002 44.279599999999995 -23.348080000000003 43.43852 -22.90378 C 42.59744 -22.459480000000003 41.530739999999994 -22.37499 40.59435 -22.67849 L 27.29495 -26.98908 L 27.29495 -26.98908 C 18.81918 -29.736240000000002 9.26782 -29.542920000000002 0.9820400000000014 -26.456490000000002 L -10.816009999999999 -22.061760000000003 L -10.816009999999999 -22.061760000000003 C -20.15449 -18.583210000000005 -28.72719 -13.949690000000004 -36.20935 -8.336720000000003 C -36.71466 -7.957640000000003 -37.740610000000004 -7.188000000000003 -37.740610000000004 -7.188000000000003 C -51.221140000000005 5.730969999999997 -50.50854 26.441359999999996 -27.894700000000004 30.708869999999997 C -24.404560000000004 31.367499999999996 -7.285740000000004 31.504929999999998 -3.6612200000000037 31.454349999999998 L 50.049369999999996 30.708869999999997 C 50.049369999999996 30.708869999999997 -12.740620000000007 62.67896999999999 -37.74062000000001 37.67897 C -43.28622000000001 32.13337 -46.73259000000001 28.14794 -48.30865000000001 22.60047 z" stroke-linecap="round" />
</g>
</svg>