<?xml version="1.0" encoding="UTF-8" standalone="no"?>
<svg
   height="97.344185"
   width="41.913742"
   fill="#4ce600"
   version="1.1"
   x="0px"
   y="0px"
   viewBox="0 0 20.956871 48.672092"
   enable-background="new 0 0 50 50"
   xml:space="preserve"
   id="svg154"
   sodipodi:docname="masonjar.svg.2021_09_24_17_12_35.0.svg"
   inkscape:version="1.1.1 (3bf5ae0d25, 2021-09-20)"
   xmlns:inkscape="http://www.inkscape.org/namespaces/inkscape"
   xmlns:sodipodi="http://sodipodi.sourceforge.net/DTD/sodipodi-0.dtd"
   xmlns="http://www.w3.org/2000/svg"
   xmlns:svg="http://www.w3.org/2000/svg"><defs
     id="defs158" /><sodipodi:namedview
     id="namedview156"
     pagecolor="#ffffff"
     bordercolor="#666666"
     borderopacity="1.0"
     inkscape:pageshadow="2"
     inkscape:pageopacity="0.0"
     inkscape:pagecheckerboard="0"
     showgrid="false"
     fit-margin-top="0"
     fit-margin-left="0"
     fit-margin-right="0"
     fit-margin-bottom="0"
     inkscape:zoom="8"
     inkscape:cx="-24.3125"
     inkscape:cy="92.1875"
     inkscape:window-width="1600"
     inkscape:window-height="861"
     inkscape:window-x="179"
     inkscape:window-y="1119"
     inkscape:window-maximized="1"
     inkscape:current-layer="svg154" /><path
     d="m 290.03979,1210.2112 c 0.063,-0.838 0.14,-1.673 0.187,-2.512 0.044,-0.77 0.088,-1.54 -0.023,-2.311 -0.017,-0.115 -0.056,-0.266 -0.133,-0.35 -0.121,-0.132 -0.295,-0.237 -0.441,-0.288 -0.168,-0.06 -0.602,-0.079 -0.602,-0.079 -0.032,0.038 0.016,0.365 0.188,0.937 0.449,1.48 0.695,3.027 0.824,4.603 z"
     id="path2" /><path
     d="m 286.44579,1213.7362 c 0.356,1.723 0.757,3.481 0.757,3.481 v 0 c 0.465,2.426 1.357,4.747 1.565,7.375 0.804,-4.171 -0.298,-7.84 -1.616,-11.666 -0.277,-0.829 -0.447,-1.685 -0.547,-2.332 -0.029,-0.363 -0.072,-0.725 -0.132,-1.087 -0.109,1.415 -0.294,2.832 -0.027,4.227 z"
     id="path4" /><path
     d="m 282.67579,1253.5572 v 0.01 c -0.01,-0.061 -0.017,-0.121 -0.026,-0.184 -0.089,1.097 -0.192,2.23 -0.131,3.33 0.047,0.8 0.136,1.635 0.283,2.416 0.29,1.533 0.874,4.106 1.012,4.567 0.514,1.709 0.967,3.444 1.053,5.237 0.025,-0.078 0.048,-0.155 0.079,-0.232 0.014,-0.034 0.067,-0.153 0.074,-0.2 0.395,-2.663 0.134,-4.846 -0.612,-7.813 -0.069,-0.274 -1.732,-7.13 -1.732,-7.13 z"
     id="path6" /><path
     d="m 283.44779,1247.2042 c -0.029,-0.364 -0.071,-0.727 -0.132,-1.089 -0.109,1.417 -0.293,2.835 -0.027,4.229 v 10e-4 c 0.356,1.722 0.756,3.481 0.756,3.481 h 0.002 c 0.463,2.425 1.355,4.747 1.564,7.375 0.804,-4.17 -0.298,-7.84 -1.616,-11.666 -0.277,-0.83 -0.447,-1.684 -0.547,-2.331 z"
     id="path8" /><path
     d="m 281.35579,1268.8662 -0.001,0.011 c -0.009,-0.063 -0.016,-0.123 -0.025,-0.185 -0.089,1.095 -0.191,2.231 -0.13,3.33 0.046,0.799 0.136,1.634 0.282,2.417 0.29,1.532 0.875,4.106 1.013,4.565 0.513,1.711 0.966,3.444 1.052,5.237 0.025,-0.077 0.049,-0.155 0.079,-0.232 0.014,-0.033 0.067,-0.151 0.074,-0.199 0.395,-2.663 0.134,-4.847 -0.612,-7.813 -0.069,-0.273 -1.732,-7.131 -1.732,-7.131 z"
     id="path10" /><path
     d="m 282.12679,1262.5152 c -0.03,-0.364 -0.071,-0.727 -0.132,-1.088 -0.109,1.415 -0.293,2.833 -0.027,4.228 v 10e-4 c 0.357,1.722 0.757,3.481 0.757,3.481 h 0.001 c 0.464,2.425 1.355,4.746 1.564,7.376 0.804,-4.173 -0.298,-7.842 -1.616,-11.668 -0.276,-0.829 -0.446,-1.683 -0.547,-2.33 z"
     id="path12" /><path
     d="m 287.04379,1205.6232 c 0.018,0.254 0.053,0.508 0.113,0.757 0.203,1.138 0.906,4.357 0.924,4.428 0.57,2.115 1.244,4.209 1.309,6.466 0.772,-3.758 -0.059,-7.232 -1.208,-10.669 l 0.001,-10e-4 c -0.279,-0.857 -0.33,-2.028 -0.33,-2.028 -0.319,-0.079 -0.754,-0.271 -0.813,0.359 -0.019,0.198 -0.009,0.399 0.001,0.599 0,0 10e-4,0.052 0.003,0.089 z"
     id="path14" /><path
     d="m 266.75079,1234.5432 h 0.232 c 0.15,0 0.271,-0.492 0.271,-1.099 0,-0.607 -0.121,-1.1 -0.271,-1.1 h -0.232 c -0.148,0 -0.27,0.492 -0.27,1.1 10e-4,0.607 0.122,1.099 0.27,1.099 z"
     id="path16" /><path
     d="m 268.12579,1234.5432 h 0.232 c 0.15,0 0.271,-0.492 0.271,-1.099 0,-0.607 -0.121,-1.1 -0.271,-1.1 h -0.232 c -0.148,0 -0.27,0.492 -0.27,1.1 10e-4,0.607 0.122,1.099 0.27,1.099 z"
     id="path18" /><path
     d="m 269.50079,1234.5432 h 0.232 c 0.15,0 0.271,-0.492 0.271,-1.099 0,-0.607 -0.121,-1.1 -0.271,-1.1 h -0.232 c -0.148,0 -0.27,0.492 -0.27,1.1 10e-4,0.607 0.122,1.099 0.27,1.099 z"
     id="path20" /><path
     d="m 270.87579,1234.5432 h 0.232 c 0.15,0 0.271,-0.492 0.271,-1.099 0,-0.607 -0.121,-1.1 -0.271,-1.1 h -0.232 c -0.148,0 -0.27,0.492 -0.27,1.1 10e-4,0.607 0.122,1.099 0.27,1.099 z"
     id="path22" /><path
     d="m 272.25079,1234.5432 h 0.232 c 0.15,0 0.271,-0.492 0.271,-1.099 0,-0.607 -0.121,-1.1 -0.271,-1.1 h -0.232 c -0.148,0 -0.27,0.492 -0.27,1.1 10e-4,0.607 0.122,1.099 0.27,1.099 z"
     id="path24" /><path
     d="m 273.62579,1234.5432 h 0.232 c 0.15,0 0.271,-0.492 0.271,-1.099 0,-0.607 -0.121,-1.1 -0.271,-1.1 h -0.232 c -0.148,0 -0.27,0.492 -0.27,1.1 10e-4,0.607 0.122,1.099 0.27,1.099 z"
     id="path26" /><path
     d="m 275.00079,1234.5432 h 0.232 c 0.15,0 0.271,-0.492 0.271,-1.099 0,-0.607 -0.121,-1.1 -0.271,-1.1 h -0.232 c -0.148,0 -0.27,0.492 -0.27,1.1 10e-4,0.607 0.122,1.099 0.27,1.099 z"
     id="path28" /><path
     d="m 276.37579,1234.5432 h 0.232 c 0.15,0 0.271,-0.492 0.271,-1.099 0,-0.607 -0.121,-1.1 -0.271,-1.1 h -0.232 c -0.148,0 -0.27,0.492 -0.27,1.1 10e-4,0.607 0.122,1.099 0.27,1.099 z"
     id="path30" /><path
     d="m 277.75079,1234.5432 h 0.232 c 0.15,0 0.271,-0.492 0.271,-1.099 0,-0.607 -0.121,-1.1 -0.271,-1.1 h -0.232 c -0.148,0 -0.27,0.492 -0.27,1.1 10e-4,0.607 0.122,1.099 0.27,1.099 z"
     id="path32" /><path
     d="m 279.12579,1234.5432 h 0.232 c 0.15,0 0.271,-0.492 0.271,-1.099 0,-0.607 -0.121,-1.1 -0.271,-1.1 h -0.232 c -0.148,0 -0.27,0.492 -0.27,1.1 10e-4,0.607 0.122,1.099 0.27,1.099 z"
     id="path34" /><path
     d="m 280.50079,1234.5432 h 0.232 c 0.15,0 0.271,-0.492 0.271,-1.099 0,-0.607 -0.121,-1.1 -0.271,-1.1 h -0.232 c -0.148,0 -0.27,0.492 -0.27,1.1 10e-4,0.607 0.122,1.099 0.27,1.099 z"
     id="path36" /><path
     d="m 281.87579,1234.5432 h 0.232 c 0.15,0 0.271,-0.492 0.271,-1.099 0,-0.607 -0.121,-1.1 -0.271,-1.1 h -0.232 c -0.148,0 -0.27,0.492 -0.27,1.1 10e-4,0.607 0.122,1.099 0.27,1.099 z"
     id="path38" /><path
     d="m 283.25079,1234.5432 h 0.232 c 0.15,0 0.271,-0.492 0.271,-1.099 0,-0.607 -0.121,-1.1 -0.271,-1.1 h -0.232 c -0.148,0 -0.27,0.492 -0.27,1.1 10e-4,0.607 0.122,1.099 0.27,1.099 z"
     id="path40" /><path
     d="m 284.62579,1234.5432 h 0.232 c 0.15,0 0.271,-0.492 0.271,-1.099 0,-0.607 -0.121,-1.1 -0.271,-1.1 h -0.232 c -0.148,0 -0.27,0.492 -0.27,1.1 10e-4,0.607 0.122,1.099 0.27,1.099 z"
     id="path42" /><path
     d="m 286.00079,1234.5432 h 0.232 c 0.15,0 0.271,-0.492 0.271,-1.099 0,-0.607 -0.121,-1.1 -0.271,-1.1 h -0.232 c -0.148,0 -0.27,0.492 -0.27,1.1 10e-4,0.607 0.122,1.099 0.27,1.099 z"
     id="path44" /><path
     d="m 287.37579,1234.5432 h 0.232 c 0.15,0 0.271,-0.492 0.271,-1.099 0,-0.607 -0.121,-1.1 -0.271,-1.1 h -0.232 c -0.148,0 -0.27,0.492 -0.27,1.1 10e-4,0.607 0.122,1.099 0.27,1.099 z"
     id="path46" /><path
     d="m 288.75079,1234.5432 h 0.232 c 0.15,0 0.271,-0.492 0.271,-1.099 0,-0.607 -0.121,-1.1 -0.271,-1.1 h -0.232 c -0.148,0 -0.27,0.492 -0.27,1.1 10e-4,0.607 0.122,1.099 0.27,1.099 z"
     id="path48" /><path
     d="m 290.12579,1234.5432 h 0.232 c 0.15,0 0.271,-0.492 0.271,-1.099 0,-0.607 -0.121,-1.1 -0.271,-1.1 h -0.232 c -0.148,0 -0.27,0.492 -0.27,1.1 10e-4,0.607 0.122,1.099 0.27,1.099 z"
     id="path50" /><path
     d="m 291.50079,1234.5432 h 0.232 c 0.15,0 0.271,-0.492 0.271,-1.099 0,-0.607 -0.121,-1.1 -0.271,-1.1 h -0.232 c -0.148,0 -0.27,0.492 -0.27,1.1 10e-4,0.607 0.122,1.099 0.27,1.099 z"
     id="path52" /><path
     d="m 292.87579,1234.5432 h 0.232 c 0.15,0 0.271,-0.492 0.271,-1.099 0,-0.607 -0.121,-1.1 -0.271,-1.1 h -0.232 c -0.148,0 -0.27,0.492 -0.27,1.1 10e-4,0.607 0.122,1.099 0.27,1.099 z"
     id="path54" /><path
     d="m 294.25079,1234.5432 h 0.232 c 0.15,0 0.271,-0.492 0.271,-1.099 0,-0.607 -0.121,-1.1 -0.271,-1.1 h -0.232 c -0.148,0 -0.27,0.492 -0.27,1.1 10e-4,0.607 0.122,1.099 0.27,1.099 z"
     id="path56" /><path
     d="m 295.62579,1234.5432 h 0.232 c 0.15,0 0.271,-0.492 0.271,-1.099 0,-0.607 -0.121,-1.1 -0.271,-1.1 h -0.232 c -0.148,0 -0.27,0.492 -0.27,1.1 10e-4,0.607 0.122,1.099 0.27,1.099 z"
     id="path58" /><path
     d="m 297.00079,1234.5432 h 0.232 c 0.15,0 0.271,-0.492 0.271,-1.099 0,-0.607 -0.121,-1.1 -0.271,-1.1 h -0.232 c -0.148,0 -0.27,0.492 -0.27,1.1 10e-4,0.607 0.122,1.099 0.27,1.099 z"
     id="path60" /><path
     d="m 298.37579,1234.5432 h 0.232 c 0.15,0 0.271,-0.492 0.271,-1.099 0,-0.607 -0.121,-1.1 -0.271,-1.1 h -0.232 c -0.148,0 -0.27,0.492 -0.27,1.1 10e-4,0.607 0.122,1.099 0.27,1.099 z"
     id="path62" /><path
     d="m 299.75079,1234.5432 h 0.232 c 0.15,0 0.271,-0.492 0.271,-1.099 0,-0.607 -0.121,-1.1 -0.271,-1.1 h -0.232 c -0.148,0 -0.27,0.492 -0.27,1.1 10e-4,0.607 0.122,1.099 0.27,1.099 z"
     id="path64" /><path
     d="m 301.12579,1234.5432 h 0.232 c 0.15,0 0.271,-0.492 0.271,-1.099 0,-0.607 -0.121,-1.1 -0.271,-1.1 h -0.232 c -0.148,0 -0.27,0.492 -0.27,1.1 10e-4,0.607 0.122,1.099 0.27,1.099 z"
     id="path66" /><path
     d="m 302.50079,1234.5432 h 0.232 c 0.15,0 0.271,-0.492 0.271,-1.099 0,-0.607 -0.121,-1.1 -0.271,-1.1 h -0.232 c -0.148,0 -0.27,0.492 -0.27,1.1 10e-4,0.607 0.122,1.099 0.27,1.099 z"
     id="path68" /><path
     d="m 303.87579,1234.5432 h 0.232 c 0.15,0 0.271,-0.492 0.271,-1.099 0,-0.607 -0.121,-1.1 -0.271,-1.1 h -0.232 c -0.148,0 -0.27,0.492 -0.27,1.1 10e-4,0.607 0.122,1.099 0.27,1.099 z"
     id="path70" /><path
     d="m 305.25079,1234.5432 h 0.232 c 0.15,0 0.271,-0.492 0.271,-1.099 0,-0.607 -0.121,-1.1 -0.271,-1.1 h -0.232 c -0.148,0 -0.27,0.492 -0.27,1.1 10e-4,0.607 0.122,1.099 0.27,1.099 z"
     id="path72" /><path
     d="m 315.47179,1270.3242 c 0.027,-8.061 -2.559,-15.174 -7.317,-21.579 -0.922,-1.241 -1.255,-2.665 -1.362,-4.162 -0.02,-0.287 -0.148,-0.684 0.348,-0.791 0.721,-0.156 1.355,-0.411 1.369,-1.318 0.014,-0.928 -0.764,-1.051 -1.355,-1.373 -0.031,-0.017 -0.004,-0.14 -0.003,-0.215 0.073,-0.035 0.144,-0.087 0.219,-0.101 0.513,-0.089 1.176,0.01 1.331,-0.655 0.137,-0.588 -0.332,-0.854 -0.832,-1.043 -0.582,-0.218 -0.146,-0.518 -0.018,-0.761 0.404,-0.767 0.4,-1.554 -0.111,-2.216 -0.467,-0.606 -0.372,-1.083 -0.04,-1.679 1.046,-1.874 0.116,-3.487 -1.985,-3.487 -5.809,0 -11.615,0 -17.424,0 0.21,-2.256 -0.07,-4.26 -0.726,-6.865 -0.069,-0.273 -1.731,-7.132 -1.731,-7.132 v 0.01 c -0.01,-0.062 -0.017,-0.122 -0.026,-0.183 -0.089,1.095 -0.192,2.231 -0.13,3.329 0.045,0.8 0.135,1.633 0.282,2.416 0.29,1.532 0.874,4.105 1.013,4.567 0.379,1.268 0.725,2.549 0.915,3.857 -0.346,0 -0.69,0 -1.036,0 -0.355,-1.461 -1.641,-6.768 -1.641,-6.768 l -0.002,0.011 c -0.009,-0.061 -0.016,-0.121 -0.025,-0.183 -0.089,1.095 -0.191,2.231 -0.13,3.328 0.046,0.799 0.136,1.636 0.283,2.417 0.067,0.354 0.15,0.767 0.239,1.194 -6.319,-10e-4 -12.639,-10e-4 -18.959,-10e-4 -2.209,10e-4 -3.139,1.567 -2.073,3.512 0.294,0.536 0.458,0.986 0.002,1.566 -0.547,0.696 -0.607,1.52 -0.144,2.317 0.195,0.337 0.459,0.618 -0.17,0.808 -0.449,0.135 -0.858,0.458 -0.725,0.991 0.129,0.521 0.646,0.563 1.105,0.618 0.186,0.022 0.416,-0.031 0.521,0.275 -0.143,0.274 -0.47,0.24 -0.713,0.359 -0.438,0.213 -0.688,0.561 -0.701,1.074 -0.014,0.519 0.217,0.987 0.666,1.073 1.431,0.273 1.082,1.207 0.925,2.135 -0.218,1.286 -0.747,2.39 -1.521,3.456 -4.131,5.69 -6.893,11.99 -6.945,19.078 -0.141,18.847 -0.063,37.695 -0.031,56.543 0.004,2.604 0.475,5.16 1.467,7.594 0.69,1.693 1.682,3.028 3.062,3.976 0.585,0.48 0.999,0.593 0.999,0.593 0.06,0.025 0.119,0.046 0.18,0.071 0.268,0.124 0.549,0.235 0.842,0.337 8.563,3.399 17.726,3.954 25.404,3.466 6.267,-0.17 12.445,-1.128 18.566,-2.875 4.018,-1.146 6.326,-3.618 7.299,-7.537 0.146,-0.59 0.27,-1.184 0.381,-1.779 0.033,-0.171 0.053,-0.285 0.053,-0.285 v -0.033 c 0.23,-1.322 0.373,-2.656 0.373,-4.009 0.005,-17.978 -0.028,-35.96 0.032,-53.941 z m -48.833,-38.611 c 12.976,0 25.952,0 38.929,0 1.572,10e-4 2.135,0.923 1.388,2.315 -0.261,0.486 -0.429,0.95 -0.407,1.412 h -40.864 c 0.023,-0.453 -0.132,-0.91 -0.392,-1.392 -0.755,-1.399 -0.206,-2.334 1.346,-2.335 z m -1.426,4.841 c 0.089,-0.105 0.163,-0.211 0.226,-0.315 h 41.357 c 0.059,0.098 0.127,0.195 0.211,0.294 0.342,0.404 0.437,0.938 0.073,1.368 -0.52,0.614 -0.362,1.21 -0.054,1.896 -13.918,0 -27.786,0 -41.806,0 0.265,-0.66 0.474,-1.26 -0.056,-1.874 -0.367,-0.429 -0.293,-0.963 0.049,-1.369 z m -0.464,6.172 c -0.055,-0.076 -0.086,-0.142 -0.102,-0.196 -0.113,-0.398 0.702,-0.698 0.957,-0.847 0.327,-0.19 0.964,-0.87 0.964,-0.87 h 39.122 c 0,0 0.637,0.683 0.965,0.874 0.226,0.133 0.891,0.385 0.958,0.721 0.05,0.043 -0.067,0.276 -0.103,0.327 -0.211,0.3 -1.82,0.22 -1.82,0.22 h -10.436 c 0,0 0,-0.01 0,-0.01 h -28.687 c 0.002,0 -1.609,0.079 -1.818,-0.219 z m 42.446,50.113 c -3.859,1.574 -8.366,1.822 -12.475,1.279 -4.298,-0.568 -7.842,-2.778 -11.5,-4.879 0.027,-1.79 -0.252,-3.518 -0.787,-5.647 -0.069,-0.272 -1.732,-7.132 -1.732,-7.132 v 0.011 c -0.01,-0.061 -0.016,-0.121 -0.026,-0.183 -0.089,1.095 -0.192,2.229 -0.13,3.328 0.046,0.799 0.135,1.634 0.283,2.417 0.289,1.533 0.873,4.107 1.012,4.567 0.217,0.725 0.417,1.456 0.59,2.192 -0.27,-0.151 -0.537,-0.306 -0.808,-0.454 -0.203,-0.111 -0.409,-0.21 -0.613,-0.316 -0.463,-1.908 -0.962,-3.969 -0.962,-3.969 v 0.013 c -0.01,-0.062 -0.017,-0.123 -0.026,-0.185 -0.089,1.095 -0.192,2.231 -0.13,3.329 0.004,0.086 0.016,0.175 0.021,0.261 -7.244,-3.438 -15.125,-3.854 -22.305,0.328 0,0 0,0 -10e-4,0 0.015,-5.606 0.028,-11.213 -0.032,-16.818 -0.087,-8.093 2.366,-15.294 7.187,-21.739 0.942,-1.261 1.417,-2.692 1.455,-4.253 0.021,-0.846 0.256,-1.204 1.219,-1.201 5.562,0.016 11.123,-10e-4 16.685,10e-4 0.002,0.01 0.002,0.019 0.004,0.028 0.291,1.532 0.874,4.106 1.012,4.567 0.514,1.709 0.967,3.444 1.052,5.237 0.026,-0.077 0.05,-0.157 0.08,-0.231 0.014,-0.034 0.067,-0.153 0.074,-0.2 0.394,-2.664 0.134,-4.849 -0.612,-7.814 -0.02,-0.08 -0.177,-0.725 -0.387,-1.587 0.351,0 0.701,0 1.051,0 0.221,0.946 0.406,1.913 0.487,2.929 0.193,-1.004 0.258,-1.975 0.247,-2.929 5.891,-10e-4 11.78,0.017 17.67,10e-4 0.947,0 1.206,0.323 1.226,1.19 0.04,1.787 0.761,3.302 1.812,4.755 4.338,5.995 6.799,12.654 6.804,20.122 0.005,6.077 0.008,12.154 0.012,18.231 0.222,0.877 -6.607,4.405 -7.457,4.751 z"
     id="path74" /><path
     d="m 3.5637914,10.73024 h 0.083 c 0.054,0 0.097,-0.176 0.097,-0.392 0,-0.217 -0.043,-0.3929996 -0.097,-0.3929996 h -0.083 c -0.053,0 -0.096,0.1759996 -0.096,0.3929996 0,0.216 0.043,0.392 0.096,0.392 z"
     id="path76"
     style="fill:#241c1c" /><path
     d="m 4.0547914,10.73024 h 0.083 c 0.054,0 0.097,-0.176 0.097,-0.392 0,-0.217 -0.043,-0.3929996 -0.097,-0.3929996 h -0.083 c -0.053,0 -0.096,0.1759996 -0.096,0.3929996 -10e-4,0.216 0.043,0.392 0.096,0.392 z"
     id="path78"
     style="fill:#241c1c" /><path
     d="m 4.5457914,10.73024 h 0.083 c 0.054,0 0.097,-0.176 0.097,-0.392 0,-0.217 -0.043,-0.3929996 -0.097,-0.3929996 h -0.083 c -0.053,0 -0.096,0.1759996 -0.096,0.3929996 0,0.216 0.043,0.392 0.096,0.392 z"
     id="path80"
     style="fill:#241c1c" /><path
     d="m 5.0367914,10.73024 h 0.083 c 0.054,0 0.097,-0.176 0.097,-0.392 0,-0.217 -0.043,-0.3929996 -0.097,-0.3929996 h -0.083 c -0.053,0 -0.096,0.1759996 -0.096,0.3929996 -0.001,0.216 0.043,0.392 0.096,0.392 z"
     id="path82"
     style="fill:#241c1c" /><path
     d="m 5.5267914,10.73024 h 0.083 c 0.054,0 0.097,-0.176 0.097,-0.392 0,-0.217 -0.043,-0.3929996 -0.097,-0.3929996 h -0.083 c -0.053,0 -0.096,0.1759996 -0.096,0.3929996 0,0.216 0.044,0.392 0.096,0.392 z"
     id="path84"
     style="fill:#241c1c" /><path
     d="m 6.0187914,10.73024 h 0.083 c 0.054,0 0.097,-0.176 0.097,-0.392 0,-0.217 -0.043,-0.3929996 -0.097,-0.3929996 h -0.083 c -0.053,0 -0.096,0.1759996 -0.096,0.3929996 -0.001,0.216 0.042,0.392 0.096,0.392 z"
     id="path86"
     style="fill:#241c1c" /><path
     d="m 6.5087914,10.73024 h 0.083 c 0.054,0 0.097,-0.176 0.097,-0.392 0,-0.217 -0.043,-0.3929996 -0.097,-0.3929996 h -0.083 c -0.053,0 -0.096,0.1759996 -0.096,0.3929996 0,0.216 0.043,0.392 0.096,0.392 z"
     id="path88"
     style="fill:#241c1c" /><path
     d="m 6.9997914,10.73024 h 0.083 c 0.054,0 0.097,-0.176 0.097,-0.392 0,-0.217 -0.043,-0.3929996 -0.097,-0.3929996 h -0.083 c -0.053,0 -0.096,0.1759996 -0.096,0.3929996 0,0.216 0.043,0.392 0.096,0.392 z"
     id="path90"
     style="fill:#241c1c" /><path
     d="m 7.4907914,10.73024 h 0.083 c 0.053,0 0.097,-0.176 0.097,-0.392 0,-0.217 -0.043,-0.3929996 -0.097,-0.3929996 h -0.083 c -0.053,0 -0.096,0.1759996 -0.096,0.3929996 0,0.216 0.043,0.392 0.096,0.392 z"
     id="path92"
     style="fill:#241c1c" /><path
     d="m 7.9817914,10.73024 h 0.083 c 0.054,0 0.097,-0.176 0.097,-0.392 0,-0.217 -0.043,-0.3929996 -0.097,-0.3929996 h -0.083 c -0.053,0 -0.096,0.1759996 -0.096,0.3929996 0,0.216 0.043,0.392 0.096,0.392 z"
     id="path94"
     style="fill:#241c1c" /><path
     d="m 8.4727914,10.73024 h 0.083 c 0.054,0 0.097,-0.176 0.097,-0.392 0,-0.217 -0.043,-0.3929996 -0.097,-0.3929996 h -0.083 c -0.053,0 -0.096,0.1759996 -0.096,0.3929996 -10e-4,0.216 0.043,0.392 0.096,0.392 z"
     id="path96"
     style="fill:#241c1c" /><path
     d="m 8.9637914,10.73024 h 0.083 c 0.054,0 0.097,-0.176 0.097,-0.392 0,-0.217 -0.043,-0.3929996 -0.097,-0.3929996 h -0.083 c -0.053,0 -0.097,0.1759996 -0.097,0.3929996 0,0.216 0.044,0.392 0.097,0.392 z"
     id="path98"
     style="fill:#241c1c" /><path
     d="m 9.4547914,10.73024 h 0.083 c 0.054,0 0.097,-0.176 0.097,-0.392 0,-0.217 -0.043,-0.3929996 -0.097,-0.3929996 h -0.083 c -0.053,0 -0.096,0.1759996 -0.096,0.3929996 -10e-4,0.216 0.042,0.392 0.096,0.392 z"
     id="path100"
     style="fill:#241c1c" /><path
     d="m 9.9447914,10.73024 h 0.083 c 0.054,0 0.097,-0.176 0.097,-0.392 0,-0.217 -0.043,-0.3929996 -0.097,-0.3929996 h -0.083 c -0.053,0 -0.096,0.1759996 -0.096,0.3929996 0,0.216 0.044,0.392 0.096,0.392 z"
     id="path102"
     style="fill:#241c1c" /><path
     d="m 10.435791,10.73024 h 0.083 c 0.054,0 0.097,-0.176 0.097,-0.392 0,-0.217 -0.043,-0.3929996 -0.097,-0.3929996 h -0.083 c -0.053,0 -0.096,0.1759996 -0.096,0.3929996 0,0.216 0.043,0.392 0.096,0.392 z"
     id="path104"
     style="fill:#241c1c" /><path
     d="m 10.926791,10.73024 h 0.083 c 0.054,0 0.097,-0.176 0.097,-0.392 0,-0.217 -0.043,-0.3929996 -0.097,-0.3929996 h -0.083 c -0.053,0 -0.096,0.1759996 -0.096,0.3929996 0,0.216 0.043,0.392 0.096,0.392 z"
     id="path106"
     style="fill:#241c1c" /><path
     d="m 11.417791,10.73024 h 0.083 c 0.054,0 0.098,-0.176 0.098,-0.392 0,-0.217 -0.044,-0.3929996 -0.098,-0.3929996 h -0.083 c -0.053,0 -0.096,0.1759996 -0.096,0.3929996 0,0.216 0.043,0.392 0.096,0.392 z"
     id="path108"
     style="fill:#241c1c" /><path
     d="m 11.908791,10.73024 h 0.083 c 0.054,0 0.097,-0.176 0.097,-0.392 0,-0.217 -0.043,-0.3929996 -0.097,-0.3929996 h -0.083 c -0.053,0 -0.097,0.1759996 -0.097,0.3929996 0,0.216 0.044,0.392 0.097,0.392 z"
     id="path110"
     style="fill:#241c1c" /><path
     d="m 12.399791,10.73024 h 0.083 c 0.054,0 0.097,-0.176 0.097,-0.392 0,-0.217 -0.043,-0.3929996 -0.097,-0.3929996 h -0.083 c -0.054,0 -0.097,0.1759996 -0.097,0.3929996 0,0.216 0.043,0.392 0.097,0.392 z"
     id="path112"
     style="fill:#241c1c" /><path
     d="m 12.889791,10.73024 h 0.083 c 0.054,0 0.098,-0.176 0.098,-0.392 0,-0.217 -0.044,-0.3929996 -0.098,-0.3929996 h -0.083 c -0.053,0 -0.096,0.1759996 -0.096,0.3929996 0,0.216 0.043,0.392 0.096,0.392 z"
     id="path114"
     style="fill:#241c1c" /><path
     d="m 13.380791,10.73024 h 0.083 c 0.054,0 0.097,-0.176 0.097,-0.392 0,-0.217 -0.043,-0.3929996 -0.097,-0.3929996 h -0.083 c -0.053,0 -0.097,0.1759996 -0.097,0.3929996 10e-4,0.216 0.045,0.392 0.097,0.392 z"
     id="path116"
     style="fill:#241c1c" /><path
     d="m 13.872791,10.73024 h 0.083 c 0.054,0 0.097,-0.176 0.097,-0.392 0,-0.217 -0.043,-0.3929996 -0.097,-0.3929996 h -0.083 c -0.054,0 -0.097,0.1759996 -0.097,0.3929996 0,0.216 0.043,0.392 0.097,0.392 z"
     id="path118"
     style="fill:#241c1c" /><path
     d="m 14.362791,10.73024 h 0.083 c 0.054,0 0.098,-0.176 0.098,-0.392 0,-0.217 -0.044,-0.3929996 -0.098,-0.3929996 h -0.083 c -0.053,0 -0.096,0.1759996 -0.096,0.3929996 0,0.216 0.043,0.392 0.096,0.392 z"
     id="path120"
     style="fill:#241c1c" /><path
     d="m 14.853791,10.73024 h 0.083 c 0.054,0 0.097,-0.176 0.097,-0.392 0,-0.217 -0.043,-0.3929996 -0.097,-0.3929996 h -0.083 c -0.053,0 -0.097,0.1759996 -0.097,0.3929996 0,0.216 0.044,0.392 0.097,0.392 z"
     id="path122"
     style="fill:#241c1c" /><path
     d="m 15.344791,10.73024 h 0.083 c 0.054,0 0.097,-0.176 0.097,-0.392 0,-0.217 -0.043,-0.3929996 -0.097,-0.3929996 h -0.083 c -0.054,0 -0.097,0.1759996 -0.097,0.3929996 0.001,0.216 0.043,0.392 0.097,0.392 z"
     id="path124"
     style="fill:#241c1c" /><path
     d="m 15.834791,10.73024 h 0.083 c 0.054,0 0.097,-0.176 0.097,-0.392 0,-0.217 -0.043,-0.3929996 -0.097,-0.3929996 h -0.083 c -0.053,0 -0.096,0.1759996 -0.096,0.3929996 10e-4,0.216 0.044,0.392 0.096,0.392 z"
     id="path126"
     style="fill:#241c1c" /><path
     d="m 16.326791,10.73024 h 0.083 c 0.054,0 0.097,-0.176 0.097,-0.392 0,-0.217 -0.043,-0.3929996 -0.097,-0.3929996 h -0.083 c -0.053,0 -0.097,0.1759996 -0.097,0.3929996 0,0.216 0.044,0.392 0.097,0.392 z"
     id="path128"
     style="fill:#241c1c" /><path
     d="m 16.817791,10.73024 h 0.083 c 0.054,0 0.097,-0.176 0.097,-0.392 0,-0.217 -0.043,-0.3929996 -0.097,-0.3929996 h -0.083 c -0.054,0 -0.097,0.1759996 -0.097,0.3929996 0,0.216 0.043,0.392 0.097,0.392 z"
     id="path130"
     style="fill:#241c1c" /><path
     d="m 17.307791,10.73024 h 0.083 c 0.054,0 0.097,-0.176 0.097,-0.392 0,-0.217 -0.043,-0.3929996 -0.097,-0.3929996 h -0.083 c -0.053,0 -0.096,0.1759996 -0.096,0.3929996 0,0.216 0.043,0.392 0.096,0.392 z"
     id="path132"
     style="fill:#241c1c" /><path
     d="m 20.956791,23.50424 c 0.01,-2.877 -0.914,-5.417 -2.612,-7.704 -0.329,-0.443 -0.448,-0.952 -0.486,-1.486 -0.008,-0.103 -0.054,-0.244 0.124,-0.283 0.257,-0.056 0.483,-0.146 0.488,-0.471 0.005,-0.331 -0.272,-0.375 -0.483,-0.49 -0.012,-0.006 -0.002,-0.05 -0.001,-0.077 0.025,-0.013 0.051,-0.031 0.078,-0.036 0.183,-0.032 0.419,0.003 0.475,-0.234 0.049,-0.21 -0.118,-0.305 -0.297,-0.373 -0.208,-0.078 -0.053,-0.185 -0.006,-0.271 0.144,-0.273 0.143,-0.555 -0.04,-0.791 -0.167,-0.216 -0.133,-0.387 -0.015,-0.599 0.374,-0.669 0.042,-1.2449996 -0.709,-1.2449996 -4.652,0 -9.3039996,0 -13.9569996,0 -0.789,0 -1.121,0.5599996 -0.74,1.2539996 0.105,0.191 0.164,0.352 0,0.559 -0.195,0.249 -0.217,0.542 -0.051,0.827 0.07,0.121 0.164,0.221 -0.061,0.289 -0.16,0.048 -0.307,0.164 -0.259,0.354 0.046,0.186 0.231,0.201 0.395,0.221 0.066,0.008 0.149,-0.011 0.187,0.098 -0.051,0.098 -0.168,0.086 -0.254,0.128 -0.157,0.076 -0.246,0.2 -0.25,0.383 -0.005,0.185 0.077,0.353 0.238,0.383 0.511,0.098 0.386,0.431 0.33,0.762 -0.078,0.459 -0.267,0.853 -0.543,1.233 -1.475,2.032 -2.46000005,4.281 -2.47900005,6.811 -0.05,6.729 -0.022,13.457 -0.011,20.186 10e-4,0.93 0.169,1.843 0.524,2.711 0.376,0.923 0.99500005,1.553 1.99100005,1.838 2.056,0.587 4.142,0.97 6.275,1.122 3.1419996,0.226 6.2129996,-0.106 9.2449996,-0.972 1.435,-0.41 2.259,-1.292 2.606,-2.691 0.177,-0.715 0.287,-1.44 0.287,-2.18 0.002,-6.417 -0.011,-12.837 0.011,-19.256 z M 3.5237914,9.7202404 c 4.632,-10e-4 9.2649996,-10e-4 13.8969996,0 0.562,0 0.762,0.3299996 0.495,0.8269996 -0.093,0.173 -0.153,0.339 -0.146,0.504 H 3.1827914 c 0.008,-0.162 -0.047,-0.325 -0.14,-0.497 -0.27,-0.5 -0.073,-0.8339996 0.481,-0.8339996 z m -0.509,1.7279996 c 0.032,-0.038 0.058,-0.075 0.081,-0.112 H 17.859791 c 0.021,0.035 0.045,0.069 0.075,0.105 0.122,0.144 0.156,0.335 0.026,0.488 -0.186,0.219 -0.13,0.432 -0.02,0.677 -4.969,0 -9.9189996,0 -14.9239996,0 0.095,-0.236 0.169,-0.45 -0.02,-0.669 -0.131,-0.153 -0.104,-0.344 0.018,-0.489 z m -0.166,2.203 c -0.02,-0.027 -0.03,-0.051 -0.036,-0.07 -0.041,-0.142 0.251,-0.249 0.342,-0.302 0.117,-0.068 0.344,-0.311 0.344,-0.311 H 17.464791 c 0,0 0.228,0.244 0.345,0.312 0.08,0.047 0.317,0.137 0.342,0.257 0.018,0.015 -0.024,0.099 -0.037,0.117 -0.075,0.107 -0.649,0.079 -0.649,0.079 h -3.726 c 0,-0.001 0,-0.002 0,-0.003 H 3.4987914 c 0,0 -0.575,0.028 -0.65,-0.079 z m 0.004,2.327 c 0.336,-0.45 0.506,-0.961 0.52,-1.518 0.007,-0.302 0.091,-0.43 0.435,-0.429 1.986,0.005 3.972,0 5.958,0 0.104,0.547 0.3119996,1.463 0.3609996,1.628 0.184,0.61 0.345,1.229 0.375,1.868 0.01,-0.027 0.018,-0.056 0.029,-0.083 0.005,-0.012 0.024,-0.055 0.026,-0.071 0.141,-0.951 0.048,-1.73 -0.218,-2.788 -0.007,-0.028 -0.063,-0.253 -0.135,-0.555 0.125,0 0.25,0 0.375,0 0.078,0.334 0.143,0.675 0.171,1.033 0.068,-0.354 0.091,-0.696 0.088,-1.033 2.102,0 4.206,0.006 6.308,0 0.338,-10e-4 0.431,0.115 0.438,0.425 0.015,0.638 0.271,1.179 0.646,1.698 1.549,2.14 2.428,4.518 2.429,7.184 0.002,2.136 0.003,4.274 0.005,6.411 -0.236,0.183 -2.144,0.767 -2.583,0.867 -1.242,0.285 -2.819,0.376 -4.442,0.255 -1.404,-0.104 -2.568,-0.482 -3.8009996,-0.885 -0.135,-0.043 -0.271,-0.086 -0.406,-0.129 -0.026,-0.512 -0.115,-1.029 -0.269,-1.64 -0.025,-0.097 -0.619,-2.543 -0.619,-2.543 v 0.003 c -0.003,-0.021 -0.006,-0.043 -0.009,-0.064 -0.032,0.391 -0.069,0.795 -0.046,1.187 0.016,0.285 0.048,0.583 0.101,0.862 0.103,0.547 0.312,1.465 0.361,1.629 0.045,0.15 0.085,0.302 0.125,0.452 -0.045,-0.014 -0.089,-0.028 -0.135,-0.043 -0.111,-0.034 -0.223,-0.064 -0.334,-0.097 -0.15,-0.618 -0.296,-1.221 -0.296,-1.221 v 0.005 c -0.004,-0.022 -0.006,-0.044 -0.01,-0.066 -0.032,0.39 -0.068,0.794 -0.046,1.185 -2.751,-0.726 -5.539,-0.72 -7.95500005,0.01 0.004,-1.925 0.008,-3.851 -0.012,-5.776 -0.032,-2.889 0.84400005,-5.46 2.56500005,-7.761 z m 17.8089996,26.484 c -0.002,1.106 -0.142,2.2 -0.599,3.229 -0.328,0.737 -0.851,1.229 -1.64,1.485 -2.915,0.945 -5.894,1.322 -8.9519996,1.165 -2.345,-0.12 -4.637,-0.506 -6.891,-1.16 -0.836,-0.243 -1.369,-0.758 -1.70400005,-1.528 -0.449,-1.031 -0.579,-2.124 -0.583,-3.23 -0.013,-3.313 -0.004,-6.626 -0.004,-9.938 0.002,0 0.004,0 0.006,0 0,-0.913 0.002,-1.828 0.005,-2.741 2.54200005,-0.812 5.54400005,-0.765 8.46700005,0.137 0.228,0.069 0.451,0.143 0.675,0.216 0,0 0.001,0 0.001,0 v 0 c 0.07,0.023 0.142,0.045 0.212,0.068 1.2099996,0.394 2.4599996,0.8 3.9369996,0.91 0.483,0.036 0.964,0.054 1.434,0.054 1.166,0 2.267,-0.109 3.193,-0.322 0.022,-0.005 1.686,-0.438 2.445,-0.791 0.002,4.147 0.003,8.297 -0.002,12.446 z"
     id="path134"
     style="fill:#241c1c" /><path
     d="m 11.876791,2.0422404 c 0.022,-0.299 0.05,-0.597 0.066,-0.896 0.017,-0.27399998 0.032,-0.54899998 -0.008,-0.82399998 -0.006,-0.042 -0.02,-0.095 -0.048,-0.125 -0.043,-0.047 -0.105,-0.085 -0.157,-0.103 -0.06,-0.021 -0.215,-0.028 -0.215,-0.028 -0.012,0.014 0.006,0.13 0.067,0.334 0.162,0.528 0.25,1.07999998 0.295,1.64199998 z"
     id="path136"
     style="fill:#241c1c" /><path
     d="m 10.420791,6.4332404 c 0.104,0.546 0.312,1.464 0.361,1.629 0.136,0.453 0.259,0.911 0.327,1.378 h 0.144 c 0.075,-0.806 -0.025,-1.521 -0.259,-2.451 -0.024,-0.098 -0.618,-2.544 -0.618,-2.544 v 0.004 c -0.003,-0.022 -0.006,-0.043 -0.01,-0.065 -0.032,0.39 -0.068,0.796 -0.046,1.188 0.016,0.284 0.049,0.581 0.101,0.861 z"
     id="path138"
     style="fill:#241c1c" /><path
     d="m 10.594791,3.2992404 c 0.127,0.615 0.27,1.242 0.27,1.242 0.166,0.865 0.485,1.693 0.559,2.631 0.287,-1.488 -0.106,-2.796 -0.577,-4.161 -0.099,-0.296 -0.159,-0.601 -0.195,-0.832 -0.011,-0.129 -0.026,-0.258 -0.047,-0.388 -0.04,0.505 -0.106,1.01 -0.01,1.508 z"
     id="path140"
     style="fill:#241c1c" /><path
     d="m 10.198791,9.0122404 c 0.024,0.127 0.054,0.275 0.086,0.428 h 0.455 c -0.126,-0.518 -0.586,-2.416 -0.586,-2.416 v 0.003 c -0.003,-0.022 -0.006,-0.043 -0.009,-0.065 -0.032,0.391 -0.068,0.796 -0.046,1.187 0.015,0.285 0.047,0.584 0.1,0.863 z"
     id="path142"
     style="fill:#241c1c" /><path
     d="m 9.2937914,19.49124 c 0.104,0.547 0.312,1.465 0.361,1.629 0.184,0.609 0.345,1.229 0.3759996,1.868 0.009,-0.028 0.017,-0.056 0.028,-0.083 0.005,-0.012 0.024,-0.055 0.026,-0.071 0.141,-0.95 0.048,-1.729 -0.2189996,-2.787 -0.024,-0.098 -0.618,-2.544 -0.618,-2.544 v 0.003 c -0.003,-0.021 -0.006,-0.043 -0.009,-0.065 -0.032,0.391 -0.069,0.795 -0.047,1.188 0.018,0.285 0.05,0.583 0.102,0.862 z"
     id="path144"
     style="fill:#241c1c" /><path
     d="m 9.4677914,16.35824 c 0.127,0.614 0.27,1.242 0.27,1.242 v 0 c 0.165,0.865 0.4839996,1.693 0.5589996,2.631 0.287,-1.487 -0.106,-2.796 -0.5769996,-4.162 -0.099,-0.296 -0.159,-0.601 -0.195,-0.832 -0.01,-0.13 -0.025,-0.259 -0.047,-0.388 -0.04,0.506 -0.105,1.011 -0.01,1.509 z"
     id="path146"
     style="fill:#241c1c" /><path
     d="m 8.8227914,24.95324 c 0.104,0.546 0.313,1.464 0.361,1.628 0.183,0.61 0.345,1.229 0.375,1.868 0.009,-0.027 0.018,-0.056 0.028,-0.083 0.005,-0.012 0.024,-0.054 0.027,-0.071 0.141,-0.949 0.047,-1.729 -0.219,-2.787 -0.024,-0.098 -0.618,-2.543 -0.618,-2.543 v 0.004 c -0.003,-0.022 -0.005,-0.044 -0.009,-0.066 -0.032,0.391 -0.068,0.796 -0.046,1.188 0.016,0.284 0.048,0.582 0.101,0.862 z"
     id="path148"
     style="fill:#241c1c" /><path
     d="m 9.2667914,23.06124 v 0 c 0.166,0.865 0.484,1.693 0.559,2.631 0.2869996,-1.489 -0.106,-2.797 -0.577,-4.163 -0.099,-0.295 -0.159,-0.6 -0.195,-0.831 -0.011,-0.13 -0.025,-0.259 -0.047,-0.388 -0.039,0.505 -0.105,1.011 -0.01,1.508 0.127,0.615 0.27,1.243 0.27,1.243 z"
     id="path150"
     style="fill:#241c1c" /><path
     d="m 10.808791,0.40524042 c 0.006,0.091 0.019,0.181 0.04,0.27 0.073,0.40599998 0.324,1.55399998 0.33,1.57999998 0.204,0.754 0.444,1.501 0.467,2.306 0.275,-1.34 -0.021,-2.58 -0.432,-3.80599998 v 0 c -0.1,-0.306 -0.118,-0.723 -0.118,-0.723 -0.114,-0.028 -0.269,-0.097 -0.291,0.128 -0.006,0.071 -0.003,0.143 0,0.213 0.002,0 0.003,0.019 0.004,0.032 z"
     id="path152"
     style="fill:#241c1c" /><ellipse
     style="fill:#241c1c;fill-opacity:0.894118;stroke-width:0.5"
     id="path18953"
     cx="19.357864"
     cy="41.880001"
     rx="1.0529372"
     ry="0.96223027" /><ellipse
     style="fill:#241c1c;fill-opacity:0.894118;stroke-width:0.5"
     id="ellipse19051"
     cx="16.546051"
     cy="44.98011"
     rx="1.0529372"
     ry="0.96223027" /><ellipse
     style="fill:#241c1c;fill-opacity:0.894118;stroke-width:0.5"
     id="ellipse19053"
     cx="14.876938"
     cy="46.974236"
     rx="1.0529372"
     ry="0.96223027" /><ellipse
     style="fill:#241c1c;fill-opacity:0.894118;stroke-width:0.5"
     id="ellipse19055"
     cx="3.8781528"
     cy="46.43354"
     rx="1.0529372"
     ry="0.96223027"
     inkscape:transform-center-x="2.6521688"
     inkscape:transform-center-y="-0.20023442" /><ellipse
     style="fill:#241c1c;fill-opacity:0.894118;stroke-width:0.5"
     id="ellipse19057"
     cx="19.322739"
     cy="38.526676"
     rx="1.0529372"
     ry="0.96223027" /><ellipse
     style="fill:#241c1c;fill-opacity:0.894118;stroke-width:0.5"
     id="ellipse19059"
     cx="7.2782021"
     cy="36.871185"
     rx="1.0529372"
     ry="0.96223027"
     inkscape:transform-center-x="-2.1049521"
     inkscape:transform-center-y="1.1133476" /><ellipse
     style="fill:#241c1c;fill-opacity:0.894118;stroke-width:0.5"
     id="ellipse19061"
     cx="18.843533"
     cy="45.863129"
     rx="1.0529372"
     ry="0.96223027" /><ellipse
     style="fill:#241c1c;fill-opacity:0.894118;stroke-width:0.5"
     id="ellipse19063"
     cx="9.3189688"
     cy="47.294582"
     rx="1.0529372"
     ry="0.96223027" /><ellipse
     style="fill:#241c1c;fill-opacity:0.894118;stroke-width:0.5"
     id="ellipse19065"
     cx="1.8630104"
     cy="43.586792"
     rx="1.0529372"
     ry="0.96223027" /><ellipse
     style="fill:#241c1c;fill-opacity:0.894118;stroke-width:0.5"
     id="ellipse19165"
     cx="13.175177"
     cy="47.296249"
     rx="1.0529372"
     ry="0.96223027" /><ellipse
     style="fill:#241c1c;fill-opacity:0.894118;stroke-width:0.5"
     id="ellipse19167"
     cx="5.3380461"
     cy="39.573524"
     rx="1.0529372"
     ry="0.96223027" /><ellipse
     style="fill:#241c1c;fill-opacity:0.894118;stroke-width:0.5"
     id="ellipse19169"
     cx="3.7248077"
     cy="43.14291"
     rx="1.0529372"
     ry="0.96223027" /><ellipse
     style="fill:#241c1c;fill-opacity:0.894118;stroke-width:0.5"
     id="ellipse19604"
     cx="7.4894371"
     cy="47.015408"
     rx="1.0529372"
     ry="0.96223027" /><ellipse
     style="fill:#241c1c;fill-opacity:0.894118;stroke-width:0.5"
     id="ellipse19606"
     cx="11.26985"
     cy="47.343899"
     rx="1.0529372"
     ry="0.96223027" /><ellipse
     style="fill:#241c1c;fill-opacity:0.894118;stroke-width:0.5"
     id="ellipse19608"
     cx="16.629519"
     cy="46.599442"
     rx="1.0529372"
     ry="0.96223027" /><ellipse
     style="fill:#241c1c;fill-opacity:0.894118;stroke-width:0.5"
     id="ellipse19610"
     cx="16.270094"
     cy="42.882584"
     rx="1.0529372"
     ry="0.96223027" /><ellipse
     style="fill:#241c1c;fill-opacity:0.894118;stroke-width:0.5"
     id="ellipse19612"
     cx="13.691157"
     cy="44.975922"
     rx="1.0529372"
     ry="0.96223027" /><ellipse
     style="fill:#241c1c;fill-opacity:0.894118;stroke-width:0.5"
     id="ellipse19614"
     cx="11.626859"
     cy="45.303638"
     rx="1.0529372"
     ry="0.96223027" /><ellipse
     style="fill:#241c1c;fill-opacity:0.894118;stroke-width:0.5"
     id="ellipse19616"
     cx="6.4440207"
     cy="44.815052"
     rx="1.0529372"
     ry="0.96223027" /><ellipse
     style="fill:#241c1c;fill-opacity:0.894118;stroke-width:0.5"
     id="ellipse19618"
     cx="5.6201792"
     cy="46.750481"
     rx="1.0529372"
     ry="0.96223027" /><ellipse
     style="fill:#241c1c;fill-opacity:0.894118;stroke-width:0.5"
     id="ellipse19620"
     cx="2.1044004"
     cy="45.843754"
     rx="1.0529372"
     ry="0.96223027" /><ellipse
     style="fill:#241c1c;fill-opacity:0.894118;stroke-width:0.5"
     id="ellipse19622"
     cx="9.767725"
     cy="40.191914"
     rx="1.0529372"
     ry="0.96223027" /><ellipse
     style="fill:#241c1c;fill-opacity:0.894118;stroke-width:0.5"
     id="ellipse19624"
     cx="14.497823"
     cy="37.473194"
     rx="1.0529372"
     ry="0.96223027" /><ellipse
     style="fill:#241c1c;fill-opacity:0.894118;stroke-width:0.5"
     id="ellipse19626"
     cx="8.8616905"
     cy="45.430359"
     rx="1.0529372"
     ry="0.96223027" /><ellipse
     style="fill:#241c1c;fill-opacity:0.894118;stroke-width:0.5"
     id="ellipse19628"
     cx="6.5362225"
     cy="41.862083"
     rx="1.0529372"
     ry="0.96223027" /><ellipse
     style="fill:#241c1c;fill-opacity:0.894118;stroke-width:0.5"
     id="ellipse19630"
     cx="18.53673"
     cy="43.999874"
     rx="1.0529372"
     ry="0.96223027" /><ellipse
     style="fill:#241c1c;fill-opacity:0.894118;stroke-width:0.5"
     id="ellipse19632"
     cx="10.410449"
     cy="43.533127"
     rx="1.0529372"
     ry="0.96223027" /><ellipse
     style="fill:#241c1c;fill-opacity:0.894118;stroke-width:0.5"
     id="ellipse19634"
     cx="13.330337"
     cy="41.643097"
     rx="1.0529372"
     ry="0.96223027" /><ellipse
     style="fill:#241c1c;fill-opacity:0.894118;stroke-width:0.5"
     id="ellipse19636"
     cx="2.150053"
     cy="41.185822"
     rx="1.0529372"
     ry="0.96223027" /><ellipse
     style="fill:#241c1c;fill-opacity:0.894118;stroke-width:0.5"
     id="ellipse19638"
     cx="17.319746"
     cy="33.517132"
     rx="1.0529372"
     ry="0.96223027" /><ellipse
     style="fill:#241c1c;fill-opacity:0.894118;stroke-width:0.5"
     id="ellipse19640"
     cx="16.496145"
     cy="39.729683"
     rx="1.053"
     ry="0.96223027" /><ellipse
     style="fill:#241c1c;fill-opacity:0.894118;stroke-width:0.5"
     id="ellipse19642"
     cx="3.4361477"
     cy="36.834587"
     rx="1.0529372"
     ry="0.96223027" /><ellipse
     style="fill:#241c1c;fill-opacity:0.894118;stroke-width:0.5"
     id="ellipse19644"
     cx="4.7811251"
     cy="32.895279"
     rx="1.0529372"
     ry="0.96223027" /><ellipse
     style="fill:#241c1c;fill-opacity:0.894118;stroke-width:0.5"
     id="ellipse19646"
     cx="10.842309"
     cy="34.567364"
     rx="1.0529372"
     ry="0.96223027" /><path
     style="fill:#800080;stroke-width:0.00195312"
     d="m 3.37793,37.812297 c -0.207153,-0.01474 -0.469536,-0.104025 -0.639649,-0.217653 -0.09431,-0.063 -0.162317,-0.135129 -0.224574,-0.238199 -0.01646,-0.02725 -0.04841,-0.09203 -0.06153,-0.124757 -0.02198,-0.05483 -0.04237,-0.124324 -0.05366,-0.18286 -0.0028,-0.0145 -0.0054,-0.0279 -0.0058,-0.02978 -5.25e-4,-0.0025 4.95e-4,-0.0034 0.0036,-0.0034 0.0039,0 0.005,0.0028 0.0125,0.03296 0.01674,0.06739 0.03504,0.116513 0.06885,0.184819 0.03136,0.06336 0.06418,0.115237 0.10598,0.167541 0.130802,0.163651 0.310402,0.283592 0.520885,0.347862 0.06657,0.02033 0.13671,0.03433 0.216797,0.0433 0.04376,0.0049 0.154929,0.006 0.204102,0.002 0.146045,-0.01183 0.283229,-0.04912 0.410156,-0.111469 0.193195,-0.09491 0.347966,-0.241361 0.445859,-0.421906 0.03748,-0.06913 0.07018,-0.15571 0.0859,-0.227485 0.002,-0.009 0.0046,-0.01675 0.0059,-0.01718 0.0035,-0.0012 0.0029,0.0054 -0.0036,0.03763 -0.02019,0.100139 -0.04999,0.177097 -0.107298,0.27709 -0.08938,0.155948 -0.179184,0.239792 -0.355511,0.331907 -0.08599,0.04492 -0.163224,0.07708 -0.235815,0.09817 -0.138766,0.04032 -0.28334,0.05923 -0.393092,0.05142 z"
     id="path420" /><path
     style="fill:#800080;stroke-width:0.125"
     d="M 20.125,96.663668 C 14.638989,96.486952 6.9731612,95.156546 4.3668572,93.92884 2.4449381,93.023515 1.2923234,90.95543 0.82098624,87.56664 0.73306636,86.93452 0.6875,81.985029 0.6875,73.067149 V 59.527387 l 1.03125,-0.278781 c 5.1094955,-1.381269 10.436816,-1.095661 16.751784,0.898094 3.454576,1.090676 5.12586,1.548344 6.537907,1.790356 2.581398,0.442428 7.47217,0.442818 10.077985,8e-4 1.30923,-0.222079 3.734444,-0.886063 5.230161,-1.431933 l 0.995913,-0.36346 -2.5e-4,12.335018 c -1.25e-4,7.08105 -0.05378,13.036066 -0.125863,13.980905 -0.133742,1.753151 -0.534123,3.548988 -1.05265,4.721468 -0.777488,1.758041 -1.757185,2.584857 -3.873591,3.269128 -4.762902,1.539911 -10.906134,2.383126 -16.135146,2.214686 z"
     id="path1466"
     transform="scale(0.5)" /></svg>
